<?xml version="1.0" encoding="UTF-8" standalone="no"?>
<!DOCTYPE svg PUBLIC "-//W3C//DTD SVG 1.1//EN" "http://www.w3.org/Graphics/SVG/1.1/DTD/svg11.dtd">
<svg width="100%" height="100%" viewBox="0 0 167 167" version="1.1" xmlns="http://www.w3.org/2000/svg" xmlnsXlink="http://www.w3.org/1999/xlink" xmlSpace="preserve" xmlnsSerif="http://www.serif.com/" style="fill-rule:evenodd;clip-rule:evenodd;stroke-linejoin:round;stroke-miterlimit:2;">
    <g transform="matrix(4.16667,0,0,4.16667,0,0)">
        <g transform="matrix(0.897495,0,0,0.897495,-373.388,-95.0905)">
            <path d="M438.318,107.711C433.057,107.711 427.796,109.714 423.79,113.718C415.78,121.729 415.78,134.763 423.79,142.774C431.801,150.783 444.834,150.783 452.845,142.774C460.855,134.763 460.855,121.729 452.845,113.718C448.84,109.714 443.579,107.711 438.318,107.711ZM438.318,150.541C432.363,150.541 426.764,148.222 422.553,144.011C413.86,135.318 413.86,121.174 422.553,112.481C426.764,108.27 432.363,105.951 438.318,105.951C444.273,105.951 449.871,108.27 454.082,112.481C462.775,121.174 462.775,135.318 454.082,144.011C449.871,148.222 444.273,150.541 438.318,150.541Z" style="fill-rule:nonzero;"/>
            <path d="M436.523,150.361C436.268,150.361 436.051,150.168 436.026,149.909C435.387,143.353 437.688,136.923 442.342,132.27C446.868,127.744 453.128,125.424 459.518,125.914C459.793,125.935 459.999,126.175 459.978,126.45C459.957,126.725 459.722,126.932 459.442,126.911C453.349,126.447 447.369,128.657 443.049,132.977C438.608,137.418 436.411,143.554 437.021,149.813C437.048,150.088 436.847,150.332 436.572,150.359C436.556,150.36 436.539,150.361 436.523,150.361Z" style="fill-rule:nonzero;"/>
            <path d="M418.793,130.642C418.244,130.642 417.692,130.622 417.14,130.58C416.865,130.56 416.658,130.32 416.679,130.044C416.699,129.768 416.943,129.553 417.215,129.583C423.303,130.04 429.273,127.829 433.587,123.515C438.033,119.07 440.229,112.927 439.613,106.662C439.586,106.387 439.787,106.143 440.062,106.116C440.345,106.094 440.581,106.29 440.608,106.565C441.254,113.128 438.952,119.564 434.294,124.222C430.164,128.351 424.59,130.642 418.793,130.642Z" style="fill-rule:nonzero;"/>
            <path d="M453.464,143.892C453.336,143.892 453.208,143.843 453.11,143.746L422.818,113.453C422.623,113.258 422.623,112.942 422.818,112.746C423.014,112.551 423.33,112.551 423.525,112.746L453.817,143.039C454.013,143.234 454.013,143.55 453.817,143.746C453.72,143.843 453.592,143.892 453.464,143.892Z" style="fill-rule:nonzero;"/>
            <path d="M423.172,143.892C423.044,143.892 422.916,143.843 422.818,143.746C422.623,143.55 422.623,143.234 422.818,143.039L453.11,112.746C453.306,112.551 453.622,112.551 453.817,112.746C454.013,112.942 454.013,113.258 453.817,113.453L423.525,143.746C423.428,143.843 423.3,143.892 423.172,143.892Z" style="fill-rule:nonzero;"/>
        </g>
    </g>
</svg>
