<?xml version="1.0" encoding="UTF-8" standalone="no"?>
<!DOCTYPE svg PUBLIC "-//W3C//DTD SVG 1.1//EN" "http://www.w3.org/Graphics/SVG/1.1/DTD/svg11.dtd">
<svg width="100%" height="100%" viewBox="0 0 167 167" version="1.1" xmlns="http://www.w3.org/2000/svg" xmlnsXlink="http://www.w3.org/1999/xlink" xmlSpace="preserve" xmlnsSerif="http://www.serif.com/" style="fill-rule:evenodd;clip-rule:evenodd;stroke-linejoin:round;stroke-miterlimit:2;">
    <g transform="matrix(4.16667,0,0,4.16667,0,0)">
        <g transform="matrix(0.741081,-0.741657,0.782837,0.782228,-1056,-72.3289)">
            <g>
                <path d="M671.619,754.921L675.543,754.921L675.543,738.574L671.619,738.574L671.619,754.921ZM676.418,756.671L670.744,756.671C670.261,756.671 669.869,756.279 669.869,755.796L669.869,737.699C669.869,737.216 670.261,736.824 670.744,736.824L676.418,736.824C676.901,736.824 677.293,737.216 677.293,737.699L677.293,755.796C677.293,756.279 676.901,756.671 676.418,756.671Z" style="fill-rule:nonzero;"/>
                <path d="M677.293,753.012L680.138,753.012L680.138,740.483L677.293,740.483L677.293,753.012ZM681.013,754.762L676.418,754.762C675.935,754.762 675.543,754.37 675.543,753.887L675.543,739.608C675.543,739.124 675.935,738.733 676.418,738.733L681.013,738.733C681.496,738.733 681.888,739.124 681.888,739.608L681.888,753.887C681.888,754.37 681.496,754.762 681.013,754.762Z" style="fill-rule:nonzero;"/>
                <path d="M681.888,747.489L683.532,747.489L683.532,746.006L681.888,746.006L681.888,747.489ZM684.407,749.239L681.013,749.239C680.529,749.239 680.138,748.848 680.138,748.364L680.138,745.131C680.138,744.648 680.529,744.256 681.013,744.256L684.407,744.256C684.891,744.256 685.282,744.648 685.282,745.131L685.282,748.364C685.282,748.848 684.891,749.239 684.407,749.239Z" style="fill-rule:nonzero;"/>
                <path d="M650.669,754.921L654.594,754.921L654.594,738.574L650.669,738.574L650.669,754.921ZM655.469,756.671L649.794,756.671C649.311,756.671 648.919,756.279 648.919,755.796L648.919,737.699C648.919,737.216 649.311,736.824 649.794,736.824L655.469,736.824C655.952,736.824 656.344,737.216 656.344,737.699L656.344,755.796C656.344,756.279 655.952,756.671 655.469,756.671Z" style="fill-rule:nonzero;"/>
                <path d="M646.075,753.012L648.919,753.012L648.919,740.483L646.075,740.483L646.075,753.012ZM649.794,754.762L645.2,754.762C644.717,754.762 644.325,754.37 644.325,753.887L644.325,739.608C644.325,739.124 644.717,738.733 645.2,738.733L649.794,738.733C650.277,738.733 650.669,739.124 650.669,739.608L650.669,753.887C650.669,754.37 650.277,754.762 649.794,754.762Z" style="fill-rule:nonzero;"/>
                <path d="M642.681,747.489L644.325,747.489L644.325,746.006L642.681,746.006L642.681,747.489ZM645.2,749.239L641.806,749.239C641.322,749.239 640.931,748.848 640.931,748.364L640.931,745.131C640.931,744.648 641.322,744.256 641.806,744.256L645.2,744.256C645.684,744.256 646.075,744.648 646.075,745.131L646.075,748.364C646.075,748.848 645.684,749.239 645.2,749.239Z" style="fill-rule:nonzero;"/>
                <path d="M656.763,748.031L669.869,748.031L669.869,745.463L656.763,745.463L656.763,748.031ZM670.744,749.781L655.888,749.781C655.404,749.781 655.013,749.39 655.013,748.906L655.013,744.588C655.013,744.105 655.404,743.713 655.888,743.713L670.744,743.713C671.228,743.713 671.619,744.105 671.619,744.588L671.619,748.906C671.619,749.39 671.228,749.781 670.744,749.781Z" style="fill-rule:nonzero;"/>
            </g>
        </g>
    </g>
</svg>
