<?xml version="1.0" encoding="UTF-8" standalone="no"?>
<!DOCTYPE svg PUBLIC "-//W3C//DTD SVG 1.1//EN" "http://www.w3.org/Graphics/SVG/1.1/DTD/svg11.dtd">
<svg width="100%" height="100%" viewBox="0 0 2000 2000" version="1.1" xmlns="http://www.w3.org/2000/svg" xmlnsXlink="http://www.w3.org/1999/xlink" xmlSpace="preserve" xmlnsSerif="http://www.serif.com/" style="fill-rule:evenodd;clip-rule:evenodd;stroke-linejoin:round;stroke-miterlimit:2;">
    <g transform="matrix(4.16667,0,0,4.16667,0,0)">
        <path d="M240,0C107.453,0 0,107.453 0,240C0,372.547 107.453,480 240,480C372.547,480 480,372.547 480,240C479.852,107.516 372.484,0.148 240,0ZM425.863,115.121L409.23,185.824L321.602,215.031L248,156.16L248,69.414L332,35.816C370.031,53.047 402.523,80.5 425.863,115.121ZM427.199,362.762L347.863,375.289L304.664,318.223L326.672,230.223L413.328,201.344L462.969,260.91C459.586,297.281 447.301,332.262 427.199,362.762ZM132.488,375.344L52.801,362.762C32.699,332.254 20.418,297.266 17.039,260.887L66.641,201.32L153.297,230.199L175.305,318.246L132.488,375.344ZM16.07,237.016C16.496,201.328 25.5,166.262 42.32,134.785L55.297,189.984L16.07,237.016ZM190.246,312L169.023,227.023L240,170.246L310.992,227.047L289.754,312L190.246,312ZM424.703,189.953L437.68,134.754C454.5,166.23 463.504,201.293 463.93,236.984L424.703,189.953ZM310.184,27.32L240,55.391L169.441,27.449C215.113,12.227 264.484,12.184 310.184,27.32ZM147.617,36L232,69.441L232,156.16L158.398,215.031L70.77,185.824L54.137,115.121C77.398,80.625 109.75,53.242 147.617,36ZM66.168,381.07L131.199,391.344L170.527,452.945C129.566,439.492 93.34,414.543 66.168,381.07ZM193.465,459.105L145.727,384.367L188,328L292,328L334.879,384.641L293.281,457.543C260.559,465.602 226.438,466.148 193.473,459.145L193.465,459.105ZM315.504,450.871L349.602,391.199L413.863,381.063C388.047,412.855 354.035,436.992 315.504,450.871Z" style="fill-rule:nonzero;"/>
    </g>
</svg>
