<?xml version="1.0" encoding="UTF-8" standalone="no"?>
<!DOCTYPE svg PUBLIC "-//W3C//DTD SVG 1.1//EN" "http://www.w3.org/Graphics/SVG/1.1/DTD/svg11.dtd">
<svg width="100%" height="100%" viewBox="0 0 696 696" version="1.1" xmlns="http://www.w3.org/2000/svg" xmlnsXlink="http://www.w3.org/1999/xlink" xmlSpace="preserve" xmlnsSerif="http://www.serif.com/" style="fill-rule:evenodd;clip-rule:evenodd;stroke-linejoin:round;stroke-miterlimit:2;">
    <g transform="matrix(4.16667,0,0,4.16667,0,0)">
        <g transform="matrix(3.60797,0,0,5.3278,0,-23.2223)">
            <g>
                <g>
                    <g transform="matrix(1.06961,0,0,0.705373,-445.692,-118.04)">
                        <path d="M420.099,208.701C419.048,208.701 418.704,208.943 418.596,209.066C418.348,209.349 418.432,210.001 418.547,210.497C418.626,210.841 418.69,211.211 418.759,211.62C418.857,212.203 418.968,212.863 419.168,213.638C419.448,214.718 420.622,215.907 422.334,216.12L438.299,215.087C438.357,215.082 445.025,214.521 447.824,210.137C447.848,210.102 449.219,208.019 450.026,205.097C450.311,204.072 450.942,201.555 451.742,198.369C453.501,191.363 456.1,181.009 457.816,175.274L456.452,175.274C455.787,177.515 454.961,180.497 454.092,183.639C451.249,193.902 449.141,201.313 447.894,203.202C446.929,204.664 443.313,209.426 437.072,209.605L420.993,208.748C420.649,208.715 420.354,208.701 420.099,208.701ZM422.312,217.873C422.28,217.873 422.249,217.872 422.218,217.868C419.56,217.582 417.896,215.702 417.475,214.076C417.255,213.229 417.137,212.529 417.033,211.911C416.97,211.54 416.914,211.203 416.842,210.891C416.536,209.57 416.68,208.595 417.281,207.911C417.99,207.105 419.212,206.814 421.125,207.004L437.094,207.857C442.418,207.701 445.586,203.523 446.428,202.246C447.624,200.434 450.274,190.862 452.405,183.171C453.36,179.72 454.264,176.46 454.963,174.146C455.075,173.777 455.415,173.524 455.801,173.524L458.999,173.524C459.277,173.524 459.539,173.657 459.704,173.881C459.869,174.106 459.917,174.395 459.834,174.661C458.154,180.014 455.316,191.316 453.44,198.795C452.637,201.993 452.003,204.518 451.714,205.564C450.827,208.77 449.352,211 449.289,211.094C446.025,216.208 438.73,216.809 438.421,216.832L422.368,217.871C422.35,217.873 422.33,217.873 422.312,217.873Z" style="fill:rgb(40,40,38);fill-rule:nonzero;"/>
                    </g>
                    <g transform="matrix(1.06961,0,0,0.705373,-445.692,-118.04)">
                        <path d="M451.76,201.202C451.742,201.202 451.726,201.201 451.709,201.2L448.385,200.865C448.109,200.837 447.909,200.592 447.938,200.317C447.965,200.041 448.231,199.847 448.484,199.869L451.809,200.204C452.084,200.232 452.284,200.477 452.256,200.752C452.231,201.01 452.013,201.202 451.76,201.202Z" style="fill:rgb(40,40,38);fill-rule:nonzero;"/>
                    </g>
                    <g transform="matrix(1.06961,0,0,0.705373,-445.692,-118.04)">
                        <path d="M453.635,193.965C453.617,193.965 453.601,193.964 453.584,193.963L450.26,193.628C449.984,193.6 449.784,193.355 449.813,193.08C449.84,192.805 450.106,192.61 450.359,192.633L453.684,192.968C453.959,192.996 454.159,193.241 454.131,193.516C454.106,193.773 453.888,193.965 453.635,193.965Z" style="fill:rgb(40,40,38);fill-rule:nonzero;"/>
                    </g>
                    <g transform="matrix(1.06961,0,0,0.705373,-445.692,-118.04)">
                        <path d="M422.627,208.567L424.671,216.347L441.447,214.717L439.638,209.03L422.627,208.567ZM424.296,217.387C424.07,217.387 423.87,217.235 423.813,217.014L421.49,208.176C421.45,208.024 421.484,207.862 421.582,207.739C421.68,207.615 421.842,207.56 421.987,207.549L440.021,208.039C440.233,208.045 440.419,208.185 440.483,208.388L442.588,215.003C442.634,215.147 442.612,215.304 442.528,215.43C442.445,215.556 442.31,215.638 442.16,215.652L424.345,217.384C424.328,217.386 424.312,217.387 424.296,217.387Z" style="fill:rgb(40,40,38);fill-rule:nonzero;"/>
                    </g>
                    <g transform="matrix(1.06961,0,0,0.705373,-445.692,-118.04)">
                        <path d="M427.095,216.52C426.985,216.52 426.885,216.448 426.854,216.338L424.578,208.208C424.541,208.076 424.619,207.937 424.752,207.9C424.886,207.864 425.023,207.941 425.061,208.074L427.336,216.203C427.373,216.336 427.295,216.474 427.162,216.511C427.14,216.517 427.117,216.52 427.095,216.52Z" style="fill:rgb(40,40,38);fill-rule:nonzero;"/>
                    </g>
                    <g transform="matrix(1.06961,0,0,0.705373,-445.692,-118.04)">
                        <path d="M429.677,216.52C429.567,216.52 429.467,216.448 429.436,216.338L427.161,208.208C427.124,208.076 427.202,207.937 427.335,207.9C427.468,207.864 427.607,207.941 427.644,208.074L429.918,216.203C429.955,216.336 429.877,216.474 429.744,216.511C429.722,216.517 429.699,216.52 429.677,216.52Z" style="fill:rgb(40,40,38);fill-rule:nonzero;"/>
                    </g>
                    <g transform="matrix(1.06961,0,0,0.705373,-445.692,-118.04)">
                        <path d="M432.259,216.52C432.149,216.52 432.049,216.448 432.018,216.338L429.743,208.208C429.706,208.076 429.784,207.937 429.917,207.9C430.05,207.864 430.189,207.941 430.226,208.074L432.5,216.203C432.537,216.336 432.459,216.474 432.326,216.511C432.304,216.517 432.281,216.52 432.259,216.52Z" style="fill:rgb(40,40,38);fill-rule:nonzero;"/>
                    </g>
                    <g transform="matrix(1.06961,0,0,0.705373,-445.692,-118.04)">
                        <path d="M434.842,216.52C434.732,216.52 434.632,216.448 434.601,216.338L432.325,208.208C432.288,208.076 432.366,207.937 432.499,207.9C432.633,207.864 432.771,207.941 432.808,208.074L435.083,216.203C435.12,216.336 435.042,216.474 434.909,216.511C434.887,216.517 434.864,216.52 434.842,216.52Z" style="fill:rgb(40,40,38);fill-rule:nonzero;"/>
                    </g>
                    <g transform="matrix(1.06961,0,0,0.705373,-445.692,-118.04)">
                        <path d="M437.424,216.52C437.315,216.52 437.214,216.448 437.183,216.338L434.908,208.208C434.871,208.076 434.949,207.937 435.082,207.9C435.215,207.864 435.353,207.941 435.391,208.074L437.665,216.203C437.702,216.336 437.624,216.474 437.491,216.511C437.469,216.517 437.446,216.52 437.424,216.52Z" style="fill:rgb(40,40,38);fill-rule:nonzero;"/>
                    </g>
                    <g transform="matrix(1.06961,0,0,0.705373,-445.692,-118.04)">
                        <path d="M440.007,216.52C439.898,216.52 439.797,216.448 439.766,216.338L437.49,208.208C437.453,208.076 437.531,207.937 437.664,207.9C437.797,207.864 437.936,207.941 437.973,208.074L440.248,216.203C440.285,216.336 440.207,216.474 440.074,216.511C440.052,216.517 440.029,216.52 440.007,216.52Z" style="fill:rgb(40,40,38);fill-rule:nonzero;"/>
                    </g>
                </g>
            </g>
        </g>
    </g>
</svg>
