<?xml version="1.0" encoding="UTF-8" standalone="no"?>
<!DOCTYPE svg PUBLIC "-//W3C//DTD SVG 1.1//EN" "http://www.w3.org/Graphics/SVG/1.1/DTD/svg11.dtd">
<svg width="100%" height="100%" viewBox="0 0 167 167" version="1.1" xmlns="http://www.w3.org/2000/svg" xmlnsXlink="http://www.w3.org/1999/xlink" xmlSpace="preserve" xmlnsSerif="http://www.serif.com/" style="fill-rule:evenodd;clip-rule:evenodd;stroke-linejoin:round;stroke-miterlimit:2;">
    <g transform="matrix(4.16667,0,0,4.16667,0,0)">
        <g transform="matrix(0.876505,0,0,0.876505,-495.784,-271.205)">
            <g>
                <g transform="matrix(1,0,0,1,0.000274302,-0.000129834)">
                    <path d="M583.629,343.044C583.868,343.463 584.403,343.61 584.823,343.369L587.46,341.863C587.472,341.857 587.485,341.85 587.496,341.843L587.647,342.073C587.65,342.078 587.957,342.522 587.85,343.015C587.76,343.425 587.405,343.814 586.791,344.17C584.291,345.625 578.018,347.389 577.955,347.406C577.929,347.414 577.904,347.423 577.878,347.432C576.391,347.19 570.851,341.882 570.549,340.416C572.51,336.845 575.754,332.516 575.817,332.43C575.847,332.384 578.895,327.862 582.053,329.298C586.514,331.326 588.246,335.357 588.254,335.375C589.486,338.578 586.904,340.166 586.601,340.339L583.955,341.85C583.536,342.09 583.39,342.624 583.629,343.044ZM573.389,350.728C572.833,350.529 571.641,349.758 570.176,348.338C568.447,346.66 567.603,345.335 567.421,344.813L569.637,342.347C570.904,344.235 573.236,346.286 573.886,346.839C574.719,347.549 575.402,348.053 575.969,348.411L573.389,350.728ZM588.858,340.727C589.999,339.465 590.911,337.406 589.879,334.727C589.8,334.536 587.888,330.029 582.778,327.705C578.261,325.65 574.515,331.228 574.388,331.422C574.248,331.608 570.949,336.01 568.906,339.778C568.794,340.025 568.778,340.311 568.833,340.622L565.868,343.923C565.755,344.049 565.681,344.204 565.655,344.371C565.511,345.28 566.237,346.636 567.812,348.401C567.964,348.571 571.523,352.531 573.633,352.53C573.658,352.53 573.681,352.53 573.704,352.529C573.908,352.52 574.1,352.442 574.251,352.306L577.73,349.182C577.819,349.195 577.902,349.202 577.976,349.202C578.239,349.202 578.417,349.131 578.547,349.058C579.476,348.794 585.149,347.151 587.672,345.683C588.742,345.061 589.379,344.276 589.568,343.35C589.821,342.104 589.133,341.14 589.088,341.082L588.858,340.727Z" style="fill-rule:nonzero;"/>
                </g>
                <g transform="matrix(1,0,0,1,0.000274302,-0.000129834)">
                    <path d="M575.673,349.371C575.199,349.163 574.135,348.505 573.149,347.542C573.05,347.447 572.894,347.449 572.797,347.545L571.974,348.368C571.925,348.416 571.899,348.482 571.901,348.55C571.903,348.619 571.932,348.684 571.983,348.73C572.534,349.23 573.94,350.265 574.784,350.547C574.809,350.556 574.836,350.56 574.863,350.56C574.928,350.56 574.992,350.535 575.039,350.487L575.749,349.777C575.808,349.718 575.833,349.634 575.819,349.553C575.803,349.472 575.748,349.404 575.673,349.371Z" style="fill-rule:nonzero;"/>
                </g>
                <g transform="matrix(1,0,0,1,0.000274302,-0.000129834)">
                    <path d="M606.734,333.024C605.269,334.445 604.078,335.215 603.522,335.415L600.942,333.098C601.508,332.74 602.192,332.235 603.025,331.526C603.674,330.972 606.003,328.924 607.262,327.021L609.484,329.494C609.297,330.036 608.453,331.356 606.734,333.024ZM590.12,328.857C589.506,328.501 589.151,328.112 589.061,327.702C588.953,327.208 589.26,326.764 589.29,326.721L589.414,326.53C589.424,326.535 589.433,326.541 589.443,326.546L592.088,328.056C592.508,328.295 593.042,328.15 593.282,327.73C593.521,327.31 593.375,326.776 592.955,326.536L590.306,325.024C590.008,324.853 587.425,323.265 588.648,320.085C588.665,320.044 590.397,316.013 594.858,313.985C598.011,312.551 601.064,317.071 601.124,317.159C601.158,317.204 604.431,321.574 606.363,325.098C606.069,326.56 600.52,331.878 599.032,332.119C599.006,332.11 598.981,332.101 598.954,332.093C598.892,332.076 592.621,330.313 590.12,328.857ZM611.255,329.058C611.229,328.891 611.155,328.736 611.042,328.61L608.055,325.284C608.11,324.962 608.093,324.665 607.976,324.408C605.961,320.696 602.662,316.294 602.554,316.152C602.397,315.913 598.652,310.339 594.133,312.392C589.023,314.715 587.111,319.223 587.024,319.434C585.997,322.101 586.912,324.157 588.053,325.416L587.856,325.721C587.777,325.827 587.089,326.79 587.343,328.036C587.532,328.962 588.169,329.747 589.239,330.37C591.762,331.838 597.435,333.481 598.363,333.745C598.493,333.818 598.671,333.889 598.934,333.889C599.008,333.889 599.092,333.882 599.181,333.869L602.66,336.993C602.811,337.129 603.004,337.207 603.206,337.216C603.23,337.217 603.253,337.217 603.278,337.217C605.388,337.217 608.947,333.257 609.099,333.087C610.674,331.322 611.399,329.966 611.255,329.058Z" style="fill-rule:nonzero;"/>
                </g>
                <g transform="matrix(1,0,0,1,0.000274302,-0.000129834)">
                    <path d="M604.937,333.055L604.114,332.232C604.018,332.136 603.862,332.133 603.762,332.229C602.777,333.19 601.712,333.849 601.237,334.057C601.161,334.09 601.107,334.159 601.091,334.24C601.077,334.321 601.102,334.405 601.161,334.463L601.871,335.173C601.919,335.221 601.983,335.247 602.048,335.247C602.075,335.247 602.102,335.242 602.127,335.234C602.971,334.951 604.377,333.917 604.928,333.417C604.979,333.371 605.008,333.306 605.01,333.237C605.012,333.169 604.986,333.103 604.937,333.055Z" style="fill-rule:nonzero;"/>
                </g>
            </g>
        </g>
    </g>
</svg>
