<?xml version="1.0" encoding="UTF-8" standalone="no"?>
<!DOCTYPE svg PUBLIC "-//W3C//DTD SVG 1.1//EN" "http://www.w3.org/Graphics/SVG/1.1/DTD/svg11.dtd">
<svg width="100%" height="100%" viewBox="0 0 40 40" version="1.1" xmlns="http://www.w3.org/2000/svg" xmlnsXlink="http://www.w3.org/1999/xlink" xmlSpace="preserve" xmlnsSerif="http://www.serif.com/" style="fill-rule:evenodd;clip-rule:evenodd;stroke-linecap:round;stroke-linejoin:round;stroke-miterlimit:2;">
    <g transform="matrix(0.0417572,0,0,0.0417572,-75.2126,-13.5557)">
        <path d="M2390.26,708.534C2378.16,770.795 2369.16,897.692 2369.16,897.692C2368.69,903.873 2370.04,908.652 2374.15,911.32L2494.24,1011.04C2509.26,1021.93 2522.12,1035.53 2532.13,1051.15L2617.28,1191.19C2627.8,1207.59 2628.97,1229.09 2616.52,1244.07C2612.49,1248.91 2610.54,1251.8 2604.91,1253.99L2602.14,1255.45C2581.65,1263.41 2560.28,1256.46 2545.62,1232.77L2449.3,1093.24C2446.74,1089.45 2443.3,1086.33 2439.27,1084.16L2260.83,975.328" style="fill:none;stroke:black;stroke-width:34.92px;"/>
        <path d="M2451.99,426.367C2451.99,469.329 2417.17,504.155 2374.2,504.155C2331.24,504.155 2296.42,469.329 2296.42,426.367C2296.42,383.406 2331.24,348.58 2374.2,348.58C2417.17,348.58 2451.99,383.406 2451.99,426.367Z" style="fill:none;stroke:black;stroke-width:34.92px;"/>
        <path d="M2245.67,591.658L2151.06,647.147C2135.72,656.144 2124.15,670.376 2118.47,687.226L2079.7,802.184C2072.36,819.197 2082.09,839.597 2099.11,846.938C2116.12,854.278 2137.75,847.092 2145.1,830.078L2184.12,724.902C2184.37,724.326 2184.86,723.895 2185.47,723.732L2221.14,699.659" style="fill:none;stroke:black;stroke-width:34.92px;"/>
        <path d="M2310.42,651.189L2461.59,750.693C2475.29,758.147 2499.57,761.441 2512.84,742.142L2585.77,624.963C2597.09,605.969 2590.49,581.371 2571.17,570.608C2553.12,560.555 2530.37,566.226 2519.15,583.573L2467.14,661.883L2396.67,593.936L2393.75,590.38C2380.99,568.605 2355.56,551.788 2328.71,547.377C2323.39,546.502 2317.05,546.823 2310.19,548.016C2267.03,555.515 2234.71,591.82 2231.12,635.479L2189.75,901.649C2187.55,915.819 2186.76,930.172 2187.39,944.499L2137.9,1084.13L1987.07,1066.57C1962.4,1064.1 1943.4,1073.86 1937.16,1094.94L1936.45,1097.31C1930.21,1118.39 1942.02,1142.1 1963.31,1146.78L2164.72,1173.96C2193.78,1177.46 2209.02,1158.37 2223.02,1132.67L2262.94,1059.39L2295.41,996.416" style="fill:none;stroke:black;stroke-width:34.92px;"/>
    </g>
</svg>
