<?xml version="1.0" encoding="UTF-8" standalone="no"?>
<!DOCTYPE svg PUBLIC "-//W3C//DTD SVG 1.1//EN" "http://www.w3.org/Graphics/SVG/1.1/DTD/svg11.dtd">
<svg width="100%" height="100%" viewBox="0 0 167 167" version="1.1" xmlns="http://www.w3.org/2000/svg" xmlnsXlink="http://www.w3.org/1999/xlink" xmlSpace="preserve" xmlnsSerif="http://www.serif.com/" style="fill-rule:evenodd;clip-rule:evenodd;stroke-linejoin:round;stroke-miterlimit:2;">
    <g transform="matrix(4.16667,0,0,4.16667,0,0)">
        <g transform="matrix(0.952381,0,0,0.952381,41.9048,29.5238)">
            <g transform="matrix(0.919414,0,0,0.919414,-564.034,-189.321)">
                <path d="M599.943,173.919C596.777,173.919 593.395,175.454 590.384,178.466C585.152,183.697 582.506,192.251 586.903,196.648C591.261,201.008 599.756,198.371 604.951,193.175C610.38,187.746 611.098,181.17 606.739,176.811C604.802,174.873 602.439,173.919 599.943,173.919ZM592.694,200.624C590.048,200.624 587.578,199.799 585.665,197.886C581.535,193.755 581.691,184.683 589.145,177.228C595.177,171.197 602.92,170.519 607.977,175.574C612.996,180.593 612.26,188.34 606.189,194.412C602.514,198.086 597.334,200.624 592.694,200.624Z" style="fill-rule:nonzero;"/>
            </g>
            <g transform="matrix(0.919414,0,0,0.919414,-564.034,-189.321)">
                <path d="M578.369,204.051C578.222,204.051 578.075,204.014 577.938,203.937C577.518,203.699 577.37,203.164 577.609,202.744C579.637,199.165 581.691,195.183 582.979,190.316C583.103,189.848 583.582,189.569 584.049,189.694C584.516,189.817 584.795,190.296 584.671,190.763C583.333,195.823 581.218,199.926 579.131,203.607C578.97,203.891 578.674,204.051 578.369,204.051Z" style="fill-rule:nonzero;"/>
            </g>
            <g transform="matrix(0.919414,0,0,0.919414,-564.034,-189.321)">
                <path d="M580.361,206.041C580.056,206.041 579.76,205.882 579.598,205.597C579.36,205.177 579.509,204.643 579.928,204.405C584.328,201.911 587.992,200.118 592.658,198.884C593.123,198.759 593.604,199.039 593.727,199.506C593.851,199.973 593.573,200.452 593.105,200.576C588.622,201.762 585.069,203.503 580.792,205.927C580.655,206.004 580.508,206.041 580.361,206.041Z" style="fill-rule:nonzero;"/>
            </g>
            <g transform="matrix(0.919414,0,0,0.919414,-564.034,-189.321)">
                <path d="M577.41,209.132C577.282,209.132 577.154,209.083 577.056,208.985L574.503,206.431C574.307,206.236 574.307,205.92 574.503,205.724C574.698,205.529 575.014,205.529 575.21,205.724L577.763,208.278C577.959,208.473 577.959,208.79 577.763,208.985C577.666,209.083 577.538,209.132 577.41,209.132Z" style="fill-rule:nonzero;"/>
            </g>
            <g transform="matrix(0.919414,0,0,0.919414,-564.034,-189.321)">
                <path d="M567.726,214.46L569.027,215.761L578.703,206.086L577.401,204.785L567.726,214.46ZM569.027,217.873C568.803,217.873 568.579,217.788 568.408,217.617L565.87,215.079C565.529,214.737 565.529,214.183 565.87,213.842L576.782,202.929C577.124,202.587 577.678,202.587 578.02,202.929L580.559,205.468C580.723,205.632 580.815,205.854 580.815,206.086C580.815,206.318 580.723,206.541 580.559,206.705L569.646,217.617C569.475,217.788 569.251,217.873 569.027,217.873Z" style="fill-rule:nonzero;"/>
            </g>
            <g transform="matrix(0.919414,0,0,0.919414,-564.034,-189.321)">
                <path d="M584.928,195.385C584.864,195.385 584.801,195.36 584.752,195.311C584.654,195.214 584.654,195.055 584.752,194.958L605.4,174.309C605.498,174.211 605.656,174.211 605.754,174.309C605.851,174.407 605.851,174.565 605.754,174.662L585.105,195.311C585.056,195.36 584.993,195.385 584.928,195.385Z" style="fill-rule:nonzero;"/>
            </g>
            <g transform="matrix(0.919414,0,0,0.919414,-564.034,-189.321)">
                <path d="M605.477,194.476C605.413,194.476 605.349,194.451 605.301,194.403L589.085,178.186C588.987,178.089 588.987,177.93 589.085,177.833C589.182,177.735 589.341,177.735 589.438,177.833L605.654,194.049C605.752,194.147 605.752,194.305 605.654,194.403C605.605,194.451 605.542,194.476 605.477,194.476Z" style="fill-rule:nonzero;"/>
            </g>
            <g transform="matrix(0.919414,0,0,0.919414,-564.034,-189.321)">
                <path d="M601.084,197.097C601.019,197.097 600.956,197.072 600.907,197.023L586.464,182.58C586.366,182.483 586.366,182.325 586.464,182.227C586.561,182.129 586.719,182.129 586.817,182.227L601.26,196.67C601.358,196.767 601.358,196.926 601.26,197.023C601.212,197.072 601.148,197.097 601.084,197.097Z" style="fill-rule:nonzero;"/>
            </g>
            <g transform="matrix(0.919414,0,0,0.919414,-564.034,-189.321)">
                <path d="M596.69,199.718C596.626,199.718 596.562,199.693 596.513,199.644L583.844,186.974C583.746,186.877 583.746,186.719 583.844,186.621C583.941,186.523 584.099,186.523 584.197,186.621L596.867,199.291C596.965,199.389 596.965,199.547 596.867,199.644C596.818,199.693 596.755,199.718 596.69,199.718Z" style="fill-rule:nonzero;"/>
            </g>
            <g transform="matrix(0.919414,0,0,0.919414,-564.034,-189.321)">
                <path d="M608.215,189.966C608.15,189.966 608.087,189.941 608.038,189.892L593.594,175.45C593.497,175.352 593.497,175.194 593.594,175.096C593.692,174.998 593.85,174.998 593.948,175.096L608.391,189.539C608.489,189.637 608.489,189.795 608.391,189.892C608.343,189.941 608.279,189.966 608.215,189.966Z" style="fill-rule:nonzero;"/>
            </g>
            <g transform="matrix(0.919414,0,0,0.919414,-564.034,-189.321)">
                <path d="M610.836,185.572C610.771,185.572 610.708,185.548 610.659,185.499L597.989,172.829C597.891,172.731 597.891,172.573 597.989,172.475C598.087,172.378 598.245,172.378 598.343,172.475L611.012,185.145C611.11,185.243 611.11,185.401 611.012,185.499C610.964,185.548 610.9,185.572 610.836,185.572Z" style="fill-rule:nonzero;"/>
            </g>
            <g transform="matrix(0.919414,0,0,0.919414,-564.034,-189.321)">
                <path d="M583.521,189.545C583.457,189.545 583.393,189.52 583.344,189.472C583.247,189.374 583.247,189.216 583.344,189.118L599.788,172.675C599.885,172.577 600.044,172.577 600.141,172.675C600.239,172.773 600.239,172.931 600.141,173.029L583.698,189.472C583.649,189.52 583.586,189.545 583.521,189.545Z" style="fill-rule:nonzero;"/>
            </g>
            <g transform="matrix(0.919414,0,0,0.919414,-564.034,-189.321)">
                <path d="M588.502,198.892C588.437,198.892 588.374,198.868 588.325,198.819C588.227,198.721 588.227,198.563 588.325,198.465L608.088,178.703C608.185,178.605 608.344,178.605 608.441,178.703C608.539,178.801 608.539,178.959 608.441,179.056L588.678,198.819C588.63,198.868 588.566,198.892 588.502,198.892Z" style="fill-rule:nonzero;"/>
            </g>
            <g transform="matrix(0.919414,0,0,0.919414,-564.034,-189.321)">
                <path d="M594.22,200.189C594.156,200.189 594.093,200.164 594.044,200.116C593.946,200.018 593.946,199.86 594.044,199.762L610.487,183.319C610.585,183.221 610.743,183.221 610.841,183.319C610.938,183.416 610.938,183.575 610.841,183.672L594.397,200.116C594.348,200.164 594.285,200.189 594.22,200.189Z" style="fill-rule:nonzero;"/>
            </g>
        </g>
    </g>
</svg>
