<?xml version="1.0" encoding="UTF-8" standalone="no"?>
<!DOCTYPE svg PUBLIC "-//W3C//DTD SVG 1.1//EN" "http://www.w3.org/Graphics/SVG/1.1/DTD/svg11.dtd">
<svg width="100%" height="100%" viewBox="0 0 40 40" version="1.1" xmlns="http://www.w3.org/2000/svg" xmlnsXlink="http://www.w3.org/1999/xlink" xmlSpace="preserve" xmlnsSerif="http://www.serif.com/" style="fill-rule:evenodd;clip-rule:evenodd;stroke-linejoin:round;stroke-miterlimit:2;">
    <g transform="matrix(0.90551,0,0,0.90551,-512.852,-408.045)">
        <path d="M570.807,462.867C570.595,462.867 570.462,462.981 570.402,463.048C570.341,463.115 570.243,463.26 570.265,463.471L570.968,470.069C570.995,470.318 571.203,470.505 571.453,470.505L605.457,470.505C605.707,470.505 605.915,470.318 605.942,470.069L606.645,463.471C606.667,463.26 606.569,463.115 606.508,463.048C606.448,462.981 606.315,462.867 606.103,462.867L570.807,462.867ZM605.457,472.255L571.453,472.255C570.307,472.255 569.35,471.396 569.228,470.255L568.525,463.656C568.455,463.01 568.665,462.361 569.1,461.878C569.535,461.395 570.157,461.117 570.807,461.117L606.103,461.117C606.753,461.117 607.375,461.395 607.81,461.878C608.245,462.361 608.454,463.01 608.385,463.656L607.682,470.255C607.56,471.396 606.603,472.255 605.457,472.255Z" style="fill:rgb(40,40,38);fill-rule:nonzero;"/>
    </g>
    <g transform="matrix(0.90551,0,0,0.90551,-512.852,-408.045)">
        <path d="M605.469,485.519L606.253,485.519L601.83,472.255L601.046,472.255L605.469,485.519ZM607.467,487.269L604.838,487.269C604.461,487.269 604.127,487.028 604.008,486.67L599.002,471.656C598.913,471.39 598.958,471.097 599.122,470.868C599.287,470.64 599.551,470.505 599.832,470.505L602.461,470.505C602.838,470.505 603.172,470.746 603.291,471.104L608.297,486.117C608.386,486.384 608.341,486.677 608.177,486.905C608.012,487.134 607.748,487.269 607.467,487.269Z" style="fill:rgb(40,40,38);fill-rule:nonzero;"/>
    </g>
    <g transform="matrix(0.90551,0,0,0.90551,-512.852,-408.045)">
        <path d="M570.966,485.519L571.75,485.519L576.173,472.255L575.389,472.255L570.966,485.519ZM572.381,487.269L569.752,487.269C569.471,487.269 569.207,487.134 569.042,486.905C568.878,486.677 568.833,486.384 568.922,486.117L573.928,471.104C574.047,470.746 574.381,470.505 574.758,470.505L577.387,470.505C577.668,470.505 577.932,470.64 578.097,470.868C578.261,471.097 578.306,471.39 578.217,471.656L573.211,486.67C573.092,487.028 572.758,487.269 572.381,487.269Z" style="fill:rgb(40,40,38);fill-rule:nonzero;"/>
    </g>
    <g transform="matrix(0.90551,0,0,0.90551,-512.852,-408.045)">
        <path d="M582.08,462.616C581.597,462.616 581.205,462.225 581.205,461.741L581.205,459.03C581.205,458.547 581.597,458.155 582.08,458.155C582.564,458.155 582.955,458.547 582.955,459.03L582.955,461.741C582.955,462.225 582.564,462.616 582.08,462.616Z" style="fill:rgb(40,40,38);fill-rule:nonzero;"/>
    </g>
    <g transform="matrix(0.90551,0,0,0.90551,-512.852,-408.045)">
        <path d="M595.139,462.616C594.656,462.616 594.264,462.225 594.264,461.741L594.264,459.03C594.264,458.547 594.656,458.155 595.139,458.155C595.622,458.155 596.014,458.547 596.014,459.03L596.014,461.741C596.014,462.225 595.622,462.616 595.139,462.616Z" style="fill:rgb(40,40,38);fill-rule:nonzero;"/>
    </g>
    <g transform="matrix(0.90551,0,0,0.90551,-512.852,-408.045)">
        <path d="M609.667,487.269L567.243,487.269C566.759,487.269 566.368,486.877 566.368,486.394C566.368,485.91 566.759,485.519 567.243,485.519L609.667,485.519C610.151,485.519 610.542,485.91 610.542,486.394C610.542,486.877 610.151,487.269 609.667,487.269Z" style="fill:rgb(40,40,38);fill-rule:nonzero;"/>
    </g>
</svg>
