<?xml version="1.0" encoding="UTF-8" standalone="no"?>
<!DOCTYPE svg PUBLIC "-//W3C//DTD SVG 1.1//EN" "http://www.w3.org/Graphics/SVG/1.1/DTD/svg11.dtd">
<svg width="100%" height="100%" viewBox="0 0 167 167" version="1.1" xmlns="http://www.w3.org/2000/svg" xmlnsXlink="http://www.w3.org/1999/xlink" xmlSpace="preserve" xmlnsSerif="http://www.serif.com/" style="fill-rule:evenodd;clip-rule:evenodd;stroke-linejoin:round;stroke-miterlimit:2;">
    <g transform="matrix(4.16667,0,0,4.16667,0,0)">
        <g transform="matrix(0.887154,0,0,0.887154,-635.008,-93.553)">
            <path d="M738.325,107.203C726.859,107.203 717.531,116.531 717.531,127.997C717.531,139.463 726.859,148.791 738.325,148.791C749.791,148.791 759.119,139.463 759.119,127.997C759.119,116.531 749.791,107.203 738.325,107.203ZM738.325,150.541C725.894,150.541 715.781,140.427 715.781,127.997C715.781,115.566 725.894,105.453 738.325,105.453C750.756,105.453 760.869,115.566 760.869,127.997C760.869,140.427 750.756,150.541 738.325,150.541Z" style="fill-rule:nonzero;"/>
        </g>
        <g transform="matrix(0.887154,0,0,0.887154,-635.008,-93.553)">
            <path d="M728.011,147.685L727.19,147.114L727.476,146.703C731.436,141.008 734.703,132.993 736.258,125.181C731.656,123.534 726.811,114.852 726.873,109.773L726.879,109.273L727.879,109.285L727.873,109.785C727.814,114.603 732.677,123.255 736.959,124.352C737.215,124.417 737.376,124.671 737.326,124.93C735.782,133.01 732.407,141.363 728.297,147.275L728.011,147.685Z" style="fill-rule:nonzero;"/>
        </g>
        <g transform="matrix(0.887154,0,0,0.887154,-635.008,-93.553)">
            <path d="M759.008,128.157L758.539,127.984C751.871,125.527 744.931,124.66 737.315,125.334L736.817,125.378L736.729,124.382L737.227,124.338C744.993,123.651 752.075,124.537 758.884,127.046L759.353,127.218L759.008,128.157Z" style="fill-rule:nonzero;"/>
        </g>
        <g transform="matrix(0.887154,0,0,0.887154,-635.008,-93.553)">
            <path d="M737.45,149.916C737.405,149.916 737.359,149.903 737.318,149.878C737.201,149.805 737.165,149.652 737.237,149.534C744.065,138.505 745.623,124.841 745.638,124.704C745.653,124.567 745.758,124.468 745.914,124.483C746.05,124.498 746.15,124.621 746.134,124.758C746.12,124.896 744.549,138.673 737.663,149.798C737.615,149.874 737.533,149.916 737.45,149.916Z" style="fill-rule:nonzero;"/>
        </g>
        <g transform="matrix(0.887154,0,0,0.887154,-635.008,-93.553)">
            <path d="M747.992,147.639C747.946,147.639 747.9,147.627 747.858,147.601C747.742,147.527 747.707,147.372 747.781,147.256C753.991,137.452 754.267,126.685 754.269,126.577C754.272,126.439 754.371,126.341 754.524,126.332C754.662,126.335 754.772,126.448 754.769,126.587C754.767,126.695 754.491,137.597 748.203,147.523C748.156,147.598 748.075,147.639 747.992,147.639Z" style="fill-rule:nonzero;"/>
        </g>
        <g transform="matrix(0.887154,0,0,0.887154,-635.008,-93.553)">
            <path d="M758.252,119.723C758.22,119.723 758.188,119.717 758.158,119.705C745.621,114.629 730.348,117.998 730.197,118.033C730.067,118.065 729.927,117.98 729.897,117.844C729.867,117.71 729.952,117.576 730.086,117.546C730.241,117.51 745.661,114.105 758.345,119.241C758.473,119.294 758.535,119.439 758.483,119.567C758.444,119.664 758.35,119.723 758.252,119.723Z" style="fill-rule:nonzero;"/>
        </g>
        <g transform="matrix(0.887154,0,0,0.887154,-635.008,-93.553)">
            <path d="M727.568,112.011C727.43,112.011 727.318,111.9 727.318,111.761C727.318,111.609 727.44,111.518 727.481,111.488C728.253,110.919 738.975,107.106 753.1,111.444C753.232,111.484 753.306,111.624 753.266,111.756C753.225,111.888 753.085,111.964 752.954,111.921C739.242,107.713 728.476,111.373 727.786,111.883C727.743,111.96 727.662,112.011 727.568,112.011Z" style="fill-rule:nonzero;"/>
        </g>
        <g transform="matrix(0.887154,0,0,0.887154,-635.008,-93.553)">
            <path d="M733.998,134.206C733.971,134.206 733.945,134.202 733.919,134.193C721.652,130.084 720.256,118.367 720.101,116.06L720.095,115.98C720.08,115.843 720.178,115.719 720.316,115.704C720.432,115.68 720.575,115.786 720.591,115.923L720.599,116.026C720.751,118.278 722.113,129.711 734.077,133.719C734.208,133.763 734.279,133.905 734.235,134.036C734.2,134.14 734.102,134.206 733.998,134.206Z" style="fill-rule:nonzero;"/>
        </g>
        <g transform="matrix(0.887154,0,0,0.887154,-635.008,-93.553)">
            <path d="M730.821,142.369C730.812,142.369 730.802,142.368 730.793,142.367C723.923,141.574 717.174,133.127 716.409,128.034C716.388,127.897 716.482,127.77 716.619,127.75C716.764,127.729 716.883,127.824 716.903,127.96C717.646,132.903 724.19,141.102 730.849,141.87C730.987,141.886 731.086,142.01 731.069,142.148C731.054,142.275 730.947,142.369 730.821,142.369Z" style="fill-rule:nonzero;"/>
        </g>
    </g>
</svg>
