<?xml version="1.0" encoding="UTF-8" standalone="no"?>
<!DOCTYPE svg PUBLIC "-//W3C//DTD SVG 1.1//EN" "http://www.w3.org/Graphics/SVG/1.1/DTD/svg11.dtd">
<svg width="100%" height="100%" viewBox="0 0 696 696" version="1.1" xmlns="http://www.w3.org/2000/svg" xmlnsXlink="http://www.w3.org/1999/xlink" xmlSpace="preserve" xmlnsSerif="http://www.serif.com/" style="fill-rule:evenodd;clip-rule:evenodd;stroke-linejoin:round;stroke-miterlimit:2;">
    <g transform="matrix(4.16667,0,0,4.16667,0,0)">
        <g transform="matrix(4.16667,0,0,4.16667,0,0)">
            <g transform="matrix(0.90125,0,0,0.84418,-172.424,-143.844)">
                <path d="M205.506,209.809C204.722,211.256 203.833,212.393 203.072,213.208C202.216,213.438 198.392,213.477 197.477,213.266C194.619,210.248 192.149,204.25 193.392,198.027C193.768,196.144 194.803,194.366 195.803,192.646C197.528,189.68 199.312,186.614 197.583,183.101C196.394,180.684 196.313,178.231 197.366,176.539C198.029,175.473 199.058,174.863 200.191,174.863L200.304,174.863C201.447,174.863 202.48,175.472 203.141,176.533C204.191,178.22 204.106,180.675 202.912,183.101C201.19,186.6 202.955,189.509 204.662,192.323C205.098,193.041 205.537,193.771 205.929,194.519C206.268,193.912 206.604,193.303 206.914,192.681C206.666,192.254 206.411,191.832 206.158,191.415C204.562,188.784 203.183,186.513 204.482,183.873C205.945,180.902 205.998,177.812 204.627,175.608C203.64,174.022 202.064,173.113 200.304,173.113L200.191,173.113C198.441,173.113 196.869,174.024 195.88,175.614C194.505,177.823 194.555,180.91 196.013,183.873C197.327,186.545 195.92,188.964 194.29,191.766C193.218,193.61 192.109,195.516 191.676,197.684C190.292,204.614 193.124,211.316 196.342,214.611C196.542,214.816 196.874,215.155 199.931,215.155C200.025,215.155 200.122,215.155 200.221,215.154C203.658,215.132 204.02,214.752 204.236,214.525C204.874,213.853 205.606,212.972 206.312,211.886C206.044,211.188 205.741,210.51 205.506,209.809Z" style="fill-rule:nonzero;"/>
            </g>
            <g transform="matrix(0.90125,0,0,0.84418,-172.424,-143.844)">
                <path d="M202.28,187.142L198.087,187.142C197.81,187.142 197.587,186.918 197.587,186.642C197.587,186.366 197.81,186.142 198.087,186.142L202.28,186.142C202.556,186.142 202.78,186.366 202.78,186.642C202.78,186.918 202.556,187.142 202.28,187.142Z" style="fill-rule:nonzero;"/>
            </g>
            <g transform="matrix(0.90125,0,0,0.84418,-172.424,-143.844)">
                <path d="M203.052,184.029L197.837,184.029C197.699,184.029 197.587,183.917 197.587,183.779C197.587,183.64 197.699,183.529 197.837,183.529L203.052,183.529C203.19,183.529 203.302,183.64 203.302,183.779C203.302,183.917 203.19,184.029 203.052,184.029Z" style="fill-rule:nonzero;"/>
            </g>
            <g transform="matrix(0.90125,0,0,0.84418,-172.424,-143.844)">
                <path d="M235.332,197.274C234.891,195.074 233.762,193.214 232.671,191.414C231.075,188.784 229.697,186.512 230.995,183.873C232.458,180.902 232.512,177.812 231.14,175.608C230.153,174.022 228.577,173.113 226.817,173.113L226.704,173.113C224.954,173.113 223.382,174.025 222.393,175.615C221.018,177.823 221.068,180.91 222.526,183.873C223.841,186.544 222.433,188.964 220.803,191.766C220.712,191.922 220.621,192.08 220.53,192.237C220.879,192.827 221.207,193.429 221.521,194.037C221.78,193.569 222.049,193.105 222.316,192.646C224.041,189.68 225.825,186.614 224.096,183.101C222.907,180.684 222.825,178.231 223.879,176.539C224.542,175.474 225.572,174.863 226.704,174.863L226.817,174.863C227.959,174.863 228.993,175.472 229.654,176.533C230.704,178.22 230.619,180.675 229.425,183.101C227.703,186.6 229.468,189.509 231.175,192.322C232.188,193.992 233.236,195.719 233.616,197.618C235.225,205.651 231.834,210.797 229.585,213.208C228.729,213.438 224.905,213.477 223.991,213.266C223.208,212.441 222.459,211.386 221.803,210.17C221.584,210.904 221.352,211.633 221.064,212.343C221.629,213.209 222.234,213.975 222.855,214.611C223.056,214.816 223.387,215.155 226.442,215.155C226.539,215.155 226.64,215.155 226.744,215.154C230.173,215.131 230.533,214.751 230.748,214.525C233.228,211.918 237.122,206.209 235.332,197.274Z" style="fill-rule:nonzero;"/>
            </g>
            <g transform="matrix(0.90125,0,0,0.84418,-172.424,-143.844)">
                <path d="M228.902,187.142L224.709,187.142C224.432,187.142 224.209,186.918 224.209,186.642C224.209,186.366 224.432,186.142 224.709,186.142L228.902,186.142C229.178,186.142 229.402,186.366 229.402,186.642C229.402,186.918 229.178,187.142 228.902,187.142Z" style="fill-rule:nonzero;"/>
            </g>
            <g transform="matrix(0.90125,0,0,0.84418,-172.424,-143.844)">
                <path d="M229.565,184.029L224.349,184.029C224.211,184.029 224.099,183.917 224.099,183.779C224.099,183.64 224.211,183.529 224.349,183.529L229.565,183.529C229.703,183.529 229.815,183.64 229.815,183.779C229.815,183.917 229.703,184.029 229.565,184.029Z" style="fill-rule:nonzero;"/>
            </g>
            <g transform="matrix(0.90125,0,0,0.84418,-172.424,-143.844)">
                <path d="M210.633,215.955C211.63,216.21 216.178,216.163 217.106,215.888C219.674,213.144 223.576,207.261 221.734,198.065C221.298,195.889 220.104,193.921 218.948,192.016C217.027,188.851 215.042,185.577 216.967,181.664C218.34,178.875 218.436,176.046 217.222,174.096C216.45,172.856 215.24,172.145 213.901,172.145L213.774,172.145C212.447,172.145 211.241,172.859 210.466,174.103C209.25,176.058 209.34,178.885 210.708,181.664C212.642,185.594 210.633,189.047 208.691,192.386C207.551,194.346 206.372,196.373 205.941,198.529C204.52,205.651 207.358,212.517 210.633,215.955ZM213.479,217.873C210.058,217.873 209.691,217.496 209.49,217.291C205.859,213.574 202.663,206.01 204.226,198.186C204.713,195.744 205.966,193.59 207.179,191.506C209.045,188.297 210.658,185.525 209.138,182.437C207.501,179.111 207.442,175.65 208.981,173.179C210.082,171.41 211.829,170.395 213.774,170.395L213.901,170.395C215.857,170.395 217.609,171.407 218.708,173.171C220.243,175.638 220.179,179.101 218.538,182.437C217.035,185.49 218.615,188.094 220.444,191.109C221.678,193.142 222.954,195.244 223.45,197.722C225.471,207.808 221.077,214.252 218.278,217.195C218.062,217.423 217.659,217.846 213.812,217.872C213.698,217.873 213.587,217.873 213.479,217.873Z" style="fill-rule:nonzero;"/>
            </g>
            <g transform="matrix(0.90125,0,0,0.84418,-172.424,-143.844)">
                <path d="M216.271,186.131L211.513,186.131C211.236,186.131 211.013,185.908 211.013,185.631C211.013,185.355 211.236,185.131 211.513,185.131L216.271,185.131C216.547,185.131 216.771,185.355 216.771,185.631C216.771,185.908 216.547,186.131 216.271,186.131Z" style="fill-rule:nonzero;"/>
            </g>
            <g transform="matrix(0.90125,0,0,0.84418,-172.424,-143.844)">
                <path d="M216.851,182.632L210.932,182.632C210.794,182.632 210.682,182.52 210.682,182.382C210.682,182.243 210.794,182.132 210.932,182.132L216.851,182.132C216.989,182.132 217.101,182.243 217.101,182.382C217.101,182.52 216.989,182.632 216.851,182.632Z" style="fill-rule:nonzero;"/>
            </g>
        </g>
    </g>
</svg>
