<?xml version="1.0" encoding="UTF-8" standalone="no"?>
<!DOCTYPE svg PUBLIC "-//W3C//DTD SVG 1.1//EN" "http://www.w3.org/Graphics/SVG/1.1/DTD/svg11.dtd">
<svg width="100%" height="100%" viewBox="0 0 167 167" version="1.1" xmlns="http://www.w3.org/2000/svg" xmlnsXlink="http://www.w3.org/1999/xlink" xmlSpace="preserve" xmlnsSerif="http://www.serif.com/" style="fill-rule:evenodd;clip-rule:evenodd;stroke-linejoin:round;stroke-miterlimit:2;">
    <g transform="matrix(4.16667,0,0,4.16667,0,0)">
        <g transform="matrix(0.918354,0,0,0.935108,-317.423,-72.2651)">
            <g>
                <g transform="matrix(1,0,0,1,4,-30.4853)">
                    <path d="M374.273,109.513C367.986,109.513 359.334,112.381 352.886,118.8C348.32,123.345 345.13,129.203 343.902,135.296C342.837,140.582 343.484,145.18 345.591,147.297C348.079,149.796 363.842,150.362 374.121,140.13C384.468,129.828 385.049,115.283 381.415,111.632C380.038,110.249 377.458,109.513 374.273,109.513ZM352.452,150.541C348.586,150.541 345.566,149.752 344.351,148.531C341.799,145.967 340.99,140.89 342.186,134.95C343.482,128.522 346.843,122.346 351.651,117.56C356.426,112.807 362.649,109.504 369.175,108.259C375.06,107.138 380.225,107.957 382.655,110.398C387.335,115.099 385.927,130.845 375.355,141.37C368.572,148.123 359.218,150.541 352.452,150.541Z" style="fill-rule:nonzero;"/>
                </g>
                <g transform="matrix(1,0,0,1,4,-30.4853)">
                    <path d="M382.548,128.472C382.302,128.472 382.088,128.291 382.054,128.041C381.605,124.79 379.643,119.999 376.269,116.625C372.632,112.988 367.614,111.098 364.253,110.838C363.978,110.817 363.772,110.576 363.793,110.301C363.815,110.026 364.042,109.823 364.331,109.841C367.874,110.115 373.159,112.101 376.976,115.918C380.514,119.456 382.573,124.487 383.044,127.904C383.082,128.177 382.891,128.43 382.617,128.467C382.594,128.471 382.571,128.472 382.548,128.472Z" style="fill-rule:nonzero;"/>
                </g>
                <g transform="matrix(1,0,0,1,4,-30.4853)">
                    <path d="M361.88,148.596C361.857,148.596 361.834,148.595 361.811,148.591C358.672,148.158 353.664,146.309 349.878,142.523C346.328,138.974 344.03,134.541 343.73,130.666C343.709,130.39 343.915,130.15 344.19,130.129C344.476,130.102 344.706,130.313 344.728,130.589C345.009,134.233 347.199,138.43 350.585,141.816C353.964,145.195 358.727,147.156 361.948,147.601C362.221,147.639 362.413,147.891 362.374,148.165C362.34,148.415 362.126,148.596 361.88,148.596Z" style="fill-rule:nonzero;"/>
                </g>
                <g transform="matrix(1,0,0,1,4,-30.4853)">
                    <path d="M344.95,148.051C344.886,148.051 344.822,148.027 344.773,147.978C344.676,147.88 344.676,147.722 344.773,147.624L350.23,142.168C350.328,142.07 350.486,142.07 350.583,142.168C350.681,142.265 350.681,142.424 350.583,142.521L345.127,147.978C345.078,148.027 345.014,148.051 344.95,148.051Z" style="fill-rule:nonzero;"/>
                </g>
                <g transform="matrix(1,0,0,1,4,-30.4853)">
                    <path d="M376.527,116.474C376.463,116.474 376.399,116.449 376.351,116.401C376.253,116.303 376.253,116.145 376.351,116.047L381.807,110.591C381.905,110.493 382.063,110.493 382.161,110.591C382.258,110.688 382.258,110.846 382.161,110.944L376.704,116.401C376.655,116.449 376.591,116.474 376.527,116.474Z" style="fill-rule:nonzero;"/>
                </g>
                <g transform="matrix(1,0,0,1,4,-30.4853)">
                    <path d="M355.916,137.462C355.788,137.462 355.66,137.413 355.562,137.315C355.367,137.12 355.367,136.803 355.562,136.608L370.925,121.246C371.12,121.05 371.436,121.05 371.632,121.246C371.827,121.441 371.827,121.757 371.632,121.953L356.27,137.315C356.172,137.413 356.044,137.462 355.916,137.462Z" style="fill-rule:nonzero;"/>
                </g>
                <g transform="matrix(1,0,0,1,4,-30.4853)">
                    <path d="M370.622,126.721C370.494,126.721 370.366,126.673 370.268,126.575L366.303,122.61C366.107,122.414 366.107,122.098 366.303,121.903C366.498,121.707 366.814,121.707 367.01,121.903L370.975,125.868C371.17,126.063 371.17,126.38 370.975,126.575C370.877,126.673 370.749,126.721 370.622,126.721Z" style="fill-rule:nonzero;"/>
                </g>
                <g transform="matrix(1,0,0,1,4,-30.4853)">
                    <path d="M367.056,130.287C366.928,130.287 366.8,130.238 366.702,130.141L362.737,126.175C362.541,125.98 362.541,125.664 362.737,125.468C362.932,125.273 363.249,125.273 363.444,125.468L367.409,129.434C367.604,129.629 367.604,129.945 367.409,130.141C367.311,130.238 367.184,130.287 367.056,130.287Z" style="fill-rule:nonzero;"/>
                </g>
                <g transform="matrix(1,0,0,1,4,-30.4853)">
                    <path d="M363.49,133.853C363.362,133.853 363.234,133.804 363.136,133.707L359.171,129.741C358.976,129.546 358.976,129.23 359.171,129.034C359.367,128.839 359.683,128.839 359.878,129.034L363.843,133C364.039,133.195 364.039,133.511 363.843,133.707C363.746,133.804 363.618,133.853 363.49,133.853Z" style="fill-rule:nonzero;"/>
                </g>
                <g transform="matrix(1,0,0,1,4,-30.4853)">
                    <path d="M359.924,137.419C359.796,137.419 359.668,137.37 359.57,137.273L355.605,133.307C355.41,133.112 355.41,132.796 355.605,132.6C355.801,132.405 356.117,132.405 356.312,132.6L360.277,136.566C360.473,136.761 360.473,137.077 360.277,137.273C360.18,137.37 360.052,137.419 359.924,137.419Z" style="fill-rule:nonzero;"/>
                </g>
            </g>
        </g>
    </g>
</svg>
